<mxfile host="app.diagrams.net" agent="Mozilla/5.0 (Windows NT 10.0; Win64; x64) AppleWebKit/537.36 (KHTML, like Gecko) Chrome/131.0.0.0 Safari/537.36" version="24.8.6">
  <diagram name="Page-1" id="lZTpmWrGvviB95ijvTk3">
    <mxGraphModel dx="2950" dy="26" grid="1" gridSize="10" guides="1" tooltips="1" connect="1" arrows="1" fold="1" page="1" pageScale="1" pageWidth="850" pageHeight="1100" math="0" shadow="0">
      <root>
        <mxCell id="0" />
        <mxCell id="1" parent="0" />
        <mxCell id="OC6rEBzUchQWsysauSIF-96" value="" style="rounded=0;whiteSpace=wrap;html=1;movable=0;resizable=0;rotatable=0;deletable=0;editable=0;locked=1;connectable=0;" vertex="1" parent="1">
          <mxGeometry x="-480" y="1150" width="1020" height="1040" as="geometry" />
        </mxCell>
        <mxCell id="OC6rEBzUchQWsysauSIF-14" style="edgeStyle=orthogonalEdgeStyle;rounded=0;orthogonalLoop=1;jettySize=auto;html=1;entryX=0.5;entryY=0;entryDx=0;entryDy=0;" edge="1" parent="1" source="OC6rEBzUchQWsysauSIF-2" target="OC6rEBzUchQWsysauSIF-9">
          <mxGeometry relative="1" as="geometry" />
        </mxCell>
        <mxCell id="OC6rEBzUchQWsysauSIF-2" value="IOT Traffic data" style="shape=umlActor;verticalLabelPosition=bottom;verticalAlign=top;html=1;outlineConnect=0;fillColor=#dae8fc;strokeColor=#6c8ebf;" vertex="1" parent="1">
          <mxGeometry x="-105" y="1160" width="40" height="80" as="geometry" />
        </mxCell>
        <mxCell id="OC6rEBzUchQWsysauSIF-8" value="" style="rounded=0;whiteSpace=wrap;html=1;" vertex="1" parent="1">
          <mxGeometry x="-355" y="1310" width="540" height="140" as="geometry" />
        </mxCell>
        <mxCell id="OC6rEBzUchQWsysauSIF-9" value="&lt;font style=&quot;font-size: 15px;&quot;&gt;Master Node&lt;/font&gt;" style="text;html=1;align=center;verticalAlign=middle;whiteSpace=wrap;rounded=0;fillColor=#f5f5f5;fontColor=#333333;strokeColor=#666666;" vertex="1" parent="1">
          <mxGeometry x="-165" y="1320" width="160" height="30" as="geometry" />
        </mxCell>
        <mxCell id="OC6rEBzUchQWsysauSIF-10" value="&lt;font style=&quot;font-size: 19px;&quot;&gt;Attack Classification&lt;/font&gt;" style="html=1;dropTarget=0;whiteSpace=wrap;fillColor=#f5f5f5;fontColor=#333333;strokeColor=#666666;" vertex="1" parent="1">
          <mxGeometry x="-320" y="1360" width="230" height="70" as="geometry" />
        </mxCell>
        <mxCell id="OC6rEBzUchQWsysauSIF-11" value="" style="shape=module;jettyWidth=8;jettyHeight=4;" vertex="1" parent="OC6rEBzUchQWsysauSIF-10">
          <mxGeometry x="1" width="20" height="20" relative="1" as="geometry">
            <mxPoint x="-27" y="7" as="offset" />
          </mxGeometry>
        </mxCell>
        <mxCell id="OC6rEBzUchQWsysauSIF-12" value="&lt;font style=&quot;font-size: 19px;&quot;&gt;Data Validation&lt;/font&gt;" style="html=1;dropTarget=0;whiteSpace=wrap;fillColor=#f5f5f5;fontColor=#333333;strokeColor=#666666;" vertex="1" parent="1">
          <mxGeometry x="-65" y="1360" width="230" height="70" as="geometry" />
        </mxCell>
        <mxCell id="OC6rEBzUchQWsysauSIF-13" value="" style="shape=module;jettyWidth=8;jettyHeight=4;" vertex="1" parent="OC6rEBzUchQWsysauSIF-12">
          <mxGeometry x="1" width="20" height="20" relative="1" as="geometry">
            <mxPoint x="-27" y="7" as="offset" />
          </mxGeometry>
        </mxCell>
        <mxCell id="OC6rEBzUchQWsysauSIF-16" value="" style="html=1;whiteSpace=wrap;" vertex="1" parent="1">
          <mxGeometry x="230" y="1479" width="270" height="310" as="geometry" />
        </mxCell>
        <mxCell id="OC6rEBzUchQWsysauSIF-17" value="" style="verticalLabelPosition=bottom;verticalAlign=top;html=1;shape=card;whiteSpace=wrap;size=20;arcSize=12;" vertex="1" parent="1">
          <mxGeometry x="310" y="1439" width="190" height="40" as="geometry" />
        </mxCell>
        <mxCell id="OC6rEBzUchQWsysauSIF-18" value="&lt;font style=&quot;font-size: 15px;&quot;&gt;Framework Layer&lt;/font&gt;" style="text;html=1;align=center;verticalAlign=middle;whiteSpace=wrap;rounded=0;" vertex="1" parent="1">
          <mxGeometry x="310" y="1449" width="190" height="30" as="geometry" />
        </mxCell>
        <mxCell id="OC6rEBzUchQWsysauSIF-19" value="&lt;font style=&quot;font-size: 19px;&quot;&gt;Rancher&lt;/font&gt;" style="rounded=0;whiteSpace=wrap;html=1;fillColor=#dae8fc;strokeColor=#6c8ebf;" vertex="1" parent="1">
          <mxGeometry x="315" y="1509" width="100" height="50" as="geometry" />
        </mxCell>
        <mxCell id="OC6rEBzUchQWsysauSIF-20" value="&lt;font style=&quot;font-size: 19px;&quot;&gt;Kubernetes(K3S)&lt;/font&gt;" style="rounded=0;whiteSpace=wrap;html=1;fillColor=#dae8fc;strokeColor=#6c8ebf;" vertex="1" parent="1">
          <mxGeometry x="278" y="1599" width="170" height="50" as="geometry" />
        </mxCell>
        <mxCell id="OC6rEBzUchQWsysauSIF-21" value="&lt;font style=&quot;font-size: 19px;&quot;&gt;NGINX Load Balancer&lt;/font&gt;" style="rounded=0;whiteSpace=wrap;html=1;fillColor=#dae8fc;strokeColor=#6c8ebf;" vertex="1" parent="1">
          <mxGeometry x="258" y="1699" width="210" height="50" as="geometry" />
        </mxCell>
        <mxCell id="OC6rEBzUchQWsysauSIF-22" value="&lt;font style=&quot;font-size: 14px;&quot;&gt;Container Management&lt;/font&gt;" style="text;html=1;align=center;verticalAlign=middle;whiteSpace=wrap;rounded=0;" vertex="1" parent="1">
          <mxGeometry x="370" y="1559" width="110" height="30" as="geometry" />
        </mxCell>
        <mxCell id="OC6rEBzUchQWsysauSIF-28" value="" style="endArrow=classic;html=1;rounded=0;" edge="1" parent="1" target="OC6rEBzUchQWsysauSIF-20">
          <mxGeometry width="50" height="50" relative="1" as="geometry">
            <mxPoint x="363" y="1545.5" as="sourcePoint" />
            <mxPoint x="420" y="1446" as="targetPoint" />
          </mxGeometry>
        </mxCell>
        <mxCell id="OC6rEBzUchQWsysauSIF-29" value="" style="endArrow=classic;html=1;rounded=0;exitX=0.5;exitY=0;exitDx=0;exitDy=0;" edge="1" parent="1" source="OC6rEBzUchQWsysauSIF-16" target="OC6rEBzUchQWsysauSIF-19">
          <mxGeometry width="50" height="50" relative="1" as="geometry">
            <mxPoint x="117" y="1589" as="sourcePoint" />
            <mxPoint x="117" y="1709" as="targetPoint" />
          </mxGeometry>
        </mxCell>
        <mxCell id="OC6rEBzUchQWsysauSIF-34" value="&lt;font style=&quot;font-size: 14px;&quot;&gt;Load Balancer&lt;/font&gt;" style="text;html=1;align=center;verticalAlign=middle;whiteSpace=wrap;rounded=0;" vertex="1" parent="1">
          <mxGeometry x="380" y="1669" width="110" height="30" as="geometry" />
        </mxCell>
        <mxCell id="OC6rEBzUchQWsysauSIF-94" style="edgeStyle=elbowEdgeStyle;rounded=0;orthogonalLoop=1;jettySize=auto;elbow=vertical;html=1;entryX=1;entryY=0.5;entryDx=0;entryDy=0;exitX=0.597;exitY=0.998;exitDx=0;exitDy=0;exitPerimeter=0;" edge="1" parent="1" source="OC6rEBzUchQWsysauSIF-43" target="OC6rEBzUchQWsysauSIF-50">
          <mxGeometry relative="1" as="geometry">
            <Array as="points">
              <mxPoint x="360" y="2110" />
            </Array>
          </mxGeometry>
        </mxCell>
        <mxCell id="OC6rEBzUchQWsysauSIF-43" value="" style="html=1;whiteSpace=wrap;" vertex="1" parent="1">
          <mxGeometry x="179" y="1930" width="270" height="90" as="geometry" />
        </mxCell>
        <mxCell id="OC6rEBzUchQWsysauSIF-44" value="" style="verticalLabelPosition=bottom;verticalAlign=top;html=1;shape=card;whiteSpace=wrap;size=20;arcSize=12;" vertex="1" parent="1">
          <mxGeometry x="259" y="1900" width="190" height="30" as="geometry" />
        </mxCell>
        <mxCell id="OC6rEBzUchQWsysauSIF-45" value="&lt;span style=&quot;font-size: 15px;&quot;&gt;Docker Container&lt;/span&gt;" style="text;html=1;align=center;verticalAlign=middle;whiteSpace=wrap;rounded=0;" vertex="1" parent="1">
          <mxGeometry x="259" y="1900" width="190" height="30" as="geometry" />
        </mxCell>
        <mxCell id="OC6rEBzUchQWsysauSIF-47" value="" style="endArrow=classic;html=1;rounded=0;entryX=0.5;entryY=0;entryDx=0;entryDy=0;exitX=0.5;exitY=1;exitDx=0;exitDy=0;" edge="1" parent="1" source="OC6rEBzUchQWsysauSIF-20" target="OC6rEBzUchQWsysauSIF-21">
          <mxGeometry width="50" height="50" relative="1" as="geometry">
            <mxPoint x="-43" y="1799" as="sourcePoint" />
            <mxPoint x="7" y="1749" as="targetPoint" />
          </mxGeometry>
        </mxCell>
        <mxCell id="OC6rEBzUchQWsysauSIF-48" value="" style="endArrow=classic;html=1;rounded=0;entryX=0;entryY=0;entryDx=105;entryDy=0;entryPerimeter=0;exitX=0.5;exitY=1;exitDx=0;exitDy=0;" edge="1" parent="1" source="OC6rEBzUchQWsysauSIF-16" target="OC6rEBzUchQWsysauSIF-44">
          <mxGeometry width="50" height="50" relative="1" as="geometry">
            <mxPoint x="149" y="1850" as="sourcePoint" />
            <mxPoint x="199" y="1800" as="targetPoint" />
          </mxGeometry>
        </mxCell>
        <mxCell id="OC6rEBzUchQWsysauSIF-49" value="&lt;font style=&quot;font-size: 19px;&quot;&gt;Model Container&lt;/font&gt;" style="rounded=0;whiteSpace=wrap;html=1;fillColor=#dae8fc;strokeColor=#6c8ebf;" vertex="1" parent="1">
          <mxGeometry x="219" y="1950" width="190" height="50" as="geometry" />
        </mxCell>
        <mxCell id="OC6rEBzUchQWsysauSIF-50" value="" style="html=1;whiteSpace=wrap;" vertex="1" parent="1">
          <mxGeometry x="-446.25" y="2070" width="720" height="90" as="geometry" />
        </mxCell>
        <mxCell id="OC6rEBzUchQWsysauSIF-56" value="" style="verticalLabelPosition=bottom;verticalAlign=top;html=1;shape=card;whiteSpace=wrap;size=20;arcSize=12;" vertex="1" parent="1">
          <mxGeometry x="-446.25" y="2040" width="110" height="30" as="geometry" />
        </mxCell>
        <mxCell id="OC6rEBzUchQWsysauSIF-51" value="&lt;span style=&quot;font-size: 15px;&quot;&gt;Slave Nodes&lt;/span&gt;" style="text;html=1;align=center;verticalAlign=middle;whiteSpace=wrap;rounded=0;" vertex="1" parent="1">
          <mxGeometry x="-467.25" y="2040" width="160.25" height="30" as="geometry" />
        </mxCell>
        <mxCell id="OC6rEBzUchQWsysauSIF-57" value="&lt;font style=&quot;font-size: 19px;&quot;&gt;Slave Node 1&lt;/font&gt;" style="rounded=0;whiteSpace=wrap;html=1;fillColor=#dae8fc;strokeColor=#6c8ebf;" vertex="1" parent="1">
          <mxGeometry x="-416.25" y="2090" width="190" height="50" as="geometry" />
        </mxCell>
        <mxCell id="OC6rEBzUchQWsysauSIF-58" value="&lt;span style=&quot;font-size: 19px;&quot;&gt;Slave Node 2&lt;/span&gt;" style="rounded=0;whiteSpace=wrap;html=1;fillColor=#dae8fc;strokeColor=#6c8ebf;" vertex="1" parent="1">
          <mxGeometry x="-181.25" y="2090" width="190" height="50" as="geometry" />
        </mxCell>
        <mxCell id="OC6rEBzUchQWsysauSIF-59" value="&lt;span style=&quot;font-size: 19px;&quot;&gt;Slave Node 3&lt;/span&gt;" style="rounded=0;whiteSpace=wrap;html=1;fillColor=#dae8fc;strokeColor=#6c8ebf;" vertex="1" parent="1">
          <mxGeometry x="43.75" y="2090" width="190" height="50" as="geometry" />
        </mxCell>
        <mxCell id="OC6rEBzUchQWsysauSIF-74" style="edgeStyle=elbowEdgeStyle;rounded=0;orthogonalLoop=1;jettySize=auto;elbow=vertical;html=1;exitX=1;exitY=0.5;exitDx=0;exitDy=0;entryX=0.5;entryY=0;entryDx=0;entryDy=0;" edge="1" parent="1" source="OC6rEBzUchQWsysauSIF-8" target="OC6rEBzUchQWsysauSIF-18">
          <mxGeometry relative="1" as="geometry">
            <Array as="points">
              <mxPoint x="230" y="1380" />
            </Array>
          </mxGeometry>
        </mxCell>
        <mxCell id="OC6rEBzUchQWsysauSIF-84" value="" style="endArrow=classic;html=1;rounded=0;elbow=vertical;entryX=0.5;entryY=0;entryDx=0;entryDy=0;exitX=0.5;exitY=1;exitDx=0;exitDy=0;" edge="1" parent="1" source="OC6rEBzUchQWsysauSIF-8" target="OC6rEBzUchQWsysauSIF-58">
          <mxGeometry width="50" height="50" relative="1" as="geometry">
            <mxPoint x="-330" y="1770" as="sourcePoint" />
            <mxPoint x="-280" y="1720" as="targetPoint" />
          </mxGeometry>
        </mxCell>
        <mxCell id="OC6rEBzUchQWsysauSIF-87" value="" style="endArrow=classic;html=1;rounded=0;elbow=vertical;entryX=0.5;entryY=0;entryDx=0;entryDy=0;" edge="1" parent="1" target="OC6rEBzUchQWsysauSIF-57">
          <mxGeometry width="50" height="50" relative="1" as="geometry">
            <mxPoint x="-90" y="1800" as="sourcePoint" />
            <mxPoint x="-40" y="1920" as="targetPoint" />
            <Array as="points">
              <mxPoint x="-321" y="1800" />
            </Array>
          </mxGeometry>
        </mxCell>
        <mxCell id="OC6rEBzUchQWsysauSIF-88" value="" style="endArrow=classic;html=1;rounded=0;elbow=vertical;entryX=0.5;entryY=0;entryDx=0;entryDy=0;" edge="1" parent="1">
          <mxGeometry width="50" height="50" relative="1" as="geometry">
            <mxPoint x="-100" y="1800" as="sourcePoint" />
            <mxPoint x="140" y="2090" as="targetPoint" />
            <Array as="points">
              <mxPoint x="140" y="1800" />
            </Array>
          </mxGeometry>
        </mxCell>
        <mxCell id="OC6rEBzUchQWsysauSIF-91" value="Attack Data" style="text;html=1;align=center;verticalAlign=middle;whiteSpace=wrap;rounded=0;fontSize=14;" vertex="1" parent="1">
          <mxGeometry x="-320" y="1800" width="80" height="30" as="geometry" />
        </mxCell>
        <mxCell id="OC6rEBzUchQWsysauSIF-92" value="Attack Data" style="text;html=1;align=center;verticalAlign=middle;whiteSpace=wrap;rounded=0;fontSize=14;" vertex="1" parent="1">
          <mxGeometry x="-85" y="1800" width="80" height="30" as="geometry" />
        </mxCell>
        <mxCell id="OC6rEBzUchQWsysauSIF-93" value="&lt;font style=&quot;font-size: 14px;&quot;&gt;Attack Data&lt;/font&gt;" style="text;html=1;align=center;verticalAlign=middle;whiteSpace=wrap;rounded=0;" vertex="1" parent="1">
          <mxGeometry x="140" y="1800" width="80" height="30" as="geometry" />
        </mxCell>
      </root>
    </mxGraphModel>
  </diagram>
</mxfile>
